<?xml version="1.0" standalone="no"?>
<!DOCTYPE svg PUBLIC "-//W3C//DTD SVG 20010904//EN"
 "http://www.w3.org/TR/2001/REC-SVG-20010904/DTD/svg10.dtd">
<svg version="1.0" xmlns="http://www.w3.org/2000/svg"
 width="256.000000pt" height="239.000000pt" viewBox="0 0 256.000000 239.000000"
 preserveAspectRatio="xMidYMid meet">
<metadata>
Created by potrace 1.16, written by Peter Selinger 2001-2019
</metadata>
<g transform="translate(0.000000,239.000000) scale(0.100000,-0.100000)"
fill="#000000" stroke="none">
<path d="M1303 2259 c-7 -7 -29 -13 -50 -15 -60 -3 -104 -12 -118 -24 -7 -6
-20 -8 -29 -4 -12 5 -20 -3 -31 -30 -8 -20 -22 -36 -31 -36 -37 0 -172 -93
-191 -131 -46 -97 -73 -250 -73 -415 0 -101 -1 -104 -19 -94 -27 14 -34 -2
-13 -31 13 -19 16 -41 13 -106 -1 -46 1 -83 6 -83 4 0 7 -20 5 -45 -2 -25 -8
-42 -13 -39 -15 9 -10 -13 6 -30 8 -8 22 -49 29 -90 8 -41 29 -108 45 -148 17
-40 27 -76 23 -80 -12 -12 -128 -52 -271 -94 l-134 -39 -43 -56 c-90 -117
-132 -225 -174 -449 -16 -85 -32 -170 -36 -187 l-6 -33 1181 0 1181 0 0 138
c0 131 -1 139 -25 175 -25 35 -43 51 -30 25 4 -7 -1 -4 -9 7 -9 11 -22 27 -29
35 -6 9 -19 24 -27 35 -14 20 -14 20 8 1 12 -11 22 -14 22 -8 0 16 -60 58 -95
66 -16 4 -37 13 -45 21 -8 7 -59 37 -112 67 -54 30 -97 57 -95 59 1 2 0 3 -2
2 -7 -4 -126 62 -137 76 -6 7 -21 14 -35 15 -14 1 -23 7 -21 15 2 9 -4 12 -20
8 -13 -3 -34 1 -48 8 -14 8 -19 14 -12 15 7 0 10 5 7 10 -3 6 1 13 9 16 25 10
8 24 -30 24 -34 0 -50 19 -16 21 12 0 10 3 -8 10 -17 7 -26 7 -28 0 -2 -6 -8
-11 -13 -11 -6 0 -8 4 -5 8 2 4 -4 19 -15 32 -12 15 -17 18 -13 8 9 -27 -7
-22 -33 10 -13 15 -20 19 -17 10 3 -10 1 -18 -5 -18 -6 0 -19 -19 -28 -42 -14
-36 -17 -39 -24 -20 -8 20 -4 80 5 90 3 3 13 -1 22 -9 16 -13 17 -11 10 16
-10 43 -10 44 5 115 7 36 18 70 25 76 7 6 9 16 5 23 -17 26 1 102 30 134 33
35 40 93 14 99 -13 2 -12 6 5 20 19 17 20 17 20 -13 0 -16 4 -28 9 -25 11 7
35 95 28 102 -3 3 -17 -2 -31 -12 -15 -9 -29 -15 -31 -12 -2 2 5 37 15 78 22
84 36 315 20 325 -6 3 -10 19 -10 35 0 31 -19 81 -35 92 -5 4 -6 10 -3 14 7 6
-18 64 -31 74 -4 3 -13 20 -20 38 -16 37 -63 92 -81 92 -6 0 -8 -6 -4 -12 4
-7 -4 -4 -17 8 -36 31 -50 38 -43 20 3 -9 10 -16 15 -16 5 0 9 -6 9 -14 0 -10
-9 -6 -28 12 -15 15 -27 30 -25 34 2 3 -6 4 -17 1 -14 -4 -20 0 -20 11 0 10
-6 13 -15 10 -9 -4 -14 -14 -13 -23 4 -19 -28 -17 -49 5 -13 12 -12 14 1 14
20 0 21 14 2 29 -11 10 -15 8 -19 -6 -4 -17 -5 -17 -6 0 -1 19 -9 21 -31 7
-11 -6 -17 -5 -20 6 -4 11 -8 12 -17 3z m-293 -258 c0 -5 -7 -17 -16 -25 -8
-9 -13 -16 -9 -16 3 0 -1 -10 -10 -23 -12 -19 -21 -49 -24 -80 -1 -5 -5 -6
-10 -3 -5 3 -11 -13 -14 -37 -4 -23 -11 -62 -16 -86 -5 -25 -5 -54 -1 -65 6
-15 1 -30 -16 -53 -34 -45 -65 -168 -61 -241 2 -34 0 -59 -4 -56 -13 8 -8 -96
5 -108 7 -7 10 -23 8 -36 -3 -18 -7 -20 -13 -10 -7 10 -9 8 -9 -6 0 -22 -12
-14 -18 12 -2 9 -8 55 -14 100 -8 71 -6 106 12 220 21 139 35 192 51 192 5 0
8 22 8 48 -2 54 4 76 36 147 34 74 115 163 115 126z m713 -53 c9 -31 2 -33
-11 -3 -6 14 -8 25 -3 25 5 0 11 -10 14 -22z m-130 -10 c15 -17 38 -59 40 -79
1 -8 13 -34 26 -59 20 -38 22 -54 17 -110 -3 -36 -1 -90 5 -120 20 -103 26
-290 11 -345 -23 -86 -60 -165 -77 -165 -6 0 -22 11 -35 25 -13 14 -28 25 -34
25 -13 1 -75 47 -127 95 -21 19 -46 35 -56 35 -15 0 -17 -7 -14 -52 l3 -53
-22 20 c-14 12 -36 20 -58 20 -36 0 -37 1 -44 50 -8 52 -2 143 13 183 13 34
36 27 42 -13 7 -41 31 -69 52 -61 8 3 17 1 20 -4 7 -11 136 -52 143 -45 2 2
13 0 23 -6 22 -11 24 -3 9 35 -8 21 -6 27 11 37 12 6 31 8 44 5 34 -9 47 15
48 87 1 51 -2 67 -19 85 -21 23 -128 67 -183 75 -43 7 -103 51 -89 65 8 8 8
15 -2 27 -7 8 -11 17 -9 20 4 3 49 12 75 14 6 1 11 8 11 16 0 8 -4 12 -9 8 -6
-3 -9 3 -8 13 5 48 0 76 -14 71 -9 -4 -19 5 -26 24 -12 27 -10 32 10 51 40 37
195 55 223 26z m-392 -280 c22 -25 25 -35 6 -19 -8 6 -16 9 -18 6 -3 -2 -10 5
-17 15 -17 28 5 26 29 -2z m159 -538 c0 -5 -7 -10 -15 -10 -8 0 -15 5 -15 10
0 6 7 10 15 10 8 0 15 -4 15 -10z m-30 -160 c-20 -13 -70 -13 -70 0 0 6 19 10
43 10 31 0 38 -3 27 -10z m48 -46 c3 -18 -3 -22 -31 -26 -41 -4 -59 0 -51 13
3 5 -5 9 -17 9 -32 0 -16 12 28 21 54 10 68 7 71 -17z m772 -352 c0 -13 -3
-12 -20 3 -18 17 -20 17 -14 2 5 -13 1 -17 -16 -17 -11 0 -18 -4 -15 -10 3 -5
4 -10 1 -10 -3 0 -11 10 -17 23 -6 12 -8 19 -4 15 4 -4 16 -1 27 6 23 17 58
10 58 -12z m35 -10 c0 -20 -18 -18 -21 1 -1 10 3 16 9 14 7 -2 12 -9 12 -15z"/>
<path d="M2485 1690 c-16 -4 -47 -8 -67 -9 -49 -1 -49 -17 0 -26 31 -5 41 -13
60 -48 31 -57 59 -90 72 -82 5 3 10 44 10 91 0 93 0 93 -75 74z"/>
<path d="M1925 1614 c-60 -8 -116 -16 -122 -19 -8 -2 7 -25 37 -56 l50 -52 41
22 c38 22 41 22 81 7 22 -9 49 -14 60 -11 16 6 19 15 16 63 -4 68 1 67 -163
46z"/>
<path d="M363 1402 c-8 -5 -9 -13 -3 -22 7 -12 10 -12 16 3 8 21 3 29 -13 19z"/>
<path d="M542 948 c-20 -20 -14 -36 13 -30 28 5 31 14 12 31 -10 8 -17 7 -25
-1z"/>
<path d="M1797 903 c-23 -4 -26 -7 -16 -19 20 -25 219 -14 219 12 0 11 -20 14
-87 13 -49 -1 -101 -4 -116 -6z"/>
<path d="M1866 761 c-3 -5 0 -11 7 -14 8 -3 14 1 14 9 0 16 -13 19 -21 5z"/>
</g>
</svg>
